<svg width="90" height="90" viewBox="0 0 90 90" fill="none" xmlns="http://www.w3.org/2000/svg">
<path fill-rule="evenodd" clip-rule="evenodd" d="M7.5 26.25C7.5 15.8947 15.8947 7.5 26.25 7.5H63.75C74.1053 7.5 82.5 15.8947 82.5 26.25V63.75C82.5 74.1053 74.1053 82.5 63.75 82.5H26.25C15.8947 82.5 7.5 74.1053 7.5 63.75V26.25ZM26.25 15C20.0368 15 15 20.0368 15 26.25V63.75C15 69.9632 20.0368 75 26.25 75H63.75C69.9632 75 75 69.9632 75 63.75V26.25C75 20.0368 69.9632 15 63.75 15H26.25ZM42.3484 31.0984C43.8128 29.6339 46.1872 29.6339 47.6516 31.0984L58.9016 42.3484C60.3661 43.8128 60.3661 46.1872 58.9016 47.6516C57.4372 49.1161 55.0628 49.1161 53.5984 47.6516L48.75 42.8033V56.25C48.75 58.3211 47.0711 60 45 60C42.9289 60 41.25 58.3211 41.25 56.25V42.8033L36.4016 47.6516C34.9372 49.1161 32.5628 49.1161 31.0984 47.6516C29.6339 46.1872 29.6339 43.8128 31.0984 42.3484L42.3484 31.0984Z" fill="#F7A760"/>
</svg>
